<svg id="_Слой_1" data-name="Слой_1" xmlns="http://www.w3.org/2000/svg" version="1.1" width="180" height="60"><defs><style>.st0{fill:#ffce00}</style></defs><path class="st0" d="M17.21 30.5h5.39v11.65h-6.89c.95-2.42 1.45-6.3 1.5-11.65Z"/><path class="st0" d="M62.08 20.82C52.9 14.16 43.73 7.49 34.55.82c-1.51-1.09-3.59-1.09-5.09 0-9.14 6.67-18.29 13.34-27.43 20a3.911 3.911 0 0 0-1.64 3.17V56c0 2.21 1.88 3.99 4.2 3.99h54.96c2.31 0 4.19-1.79 4.19-3.99V24c0-1.25-.61-2.42-1.65-3.18ZM31.42 52.01h-5.73v-4.69H13.47v4.69H7.74v-9.85h1.83c1.46-1.13 2.19-5.31 2.19-12.52v-4.3h16.55v16.81h3.1V52Zm21.46-7.59c-2.39 2.24-5.19 3.34-8.41 3.3-3.24.04-6.04-1.06-8.39-3.3-2.35-2.24-3.5-4.94-3.43-8.09-.06-3.13 1.08-5.83 3.45-8.09 2.36-2.27 5.15-3.36 8.37-3.3 3.22-.06 6.02 1.03 8.41 3.3 2.39 2.26 3.54 4.96 3.48 8.09.06 3.15-1.09 5.85-3.48 8.09ZM44.51 30.2c-1.78 0-3.22.57-4.33 1.7s-1.66 2.61-1.66 4.43.55 3.31 1.66 4.46c1.11 1.11 2.55 1.66 4.33 1.66s3.16-.56 4.3-1.7c1.13-1.13 1.7-2.61 1.7-4.43s-.57-3.27-1.71-4.41c-1.15-1.14-2.57-1.72-4.28-1.72Z"/><path d="M84.6 25.36h5.74v22.02H84.6v-7.64c-1.27.47-2.65.7-4.14.7-2.74 0-4.89-.78-6.46-2.35-1.57-1.57-2.35-3.76-2.35-6.59v-6.14h5.74v5.57c0 1.45.33 2.51 1 3.2.67.69 1.75 1.03 3.24 1.03 1.16 0 2.15-.16 2.97-.47v-9.34Zm27.82-.4h1.83v22.42h-5.74V35.94L96.57 47.78h-1.83V25.36h5.74v11.31l11.94-11.71Zm5.11 11.41c-.04-3.16 1.11-5.87 3.47-8.12 2.36-2.26 5.17-3.35 8.44-3.29 2.2 0 4.18.52 5.94 1.55 1.76 1.03 3.14 2.49 4.14 4.35l-4.37 2.97c-1.42-2.4-3.34-3.6-5.74-3.6-1.76 0-3.2.57-4.32 1.7s-1.69 2.62-1.69 4.47.56 3.28 1.67 4.44c1.16 1.11 2.6 1.67 4.34 1.67 2.4 0 4.31-1.2 5.74-3.6l4.37 2.97c-1 1.87-2.38 3.32-4.14 4.35-1.76 1.03-3.75 1.55-5.97 1.55-3.25.04-6.05-1.06-8.42-3.3-2.37-2.25-3.52-4.95-3.45-8.11Zm29.99 11.01V30.53h-6.61v-5.17h18.95v5.17h-6.61v16.85h-5.74Zm25.92 0-.8-1.83h-7.91l-.8 1.83h-6.17l10.01-22.42h1.83l10.01 22.42h-6.17Zm-2.83-6.44-1.9-5.1-1.94 5.1h3.84Z"/></svg>